<svg xmlns="http://www.w3.org/2000/svg" viewBox="0 0 64 64" role="img" aria-label="C">
  <path
    fill="none"
    stroke="#f8f6f2"
    stroke-linejoin="round"
    stroke-width="6"
    d="M35 8C20 8 9 18 9 32s11 24 26 24c7.4 0 13.8-2.9 18-8.2l-7.4-5.7c-2.4 3.2-6.1 5.1-10.4 5.1C25.3 47.2 18 40.6 18 32s7.3-15.2 17.2-15.2c4.3 0 8 1.9 10.4 5.1l7.4-5.7C48.8 10.9 42.4 8 35 8Z"
  />
  <path
    fill="#24486a"
    d="M35 8C20 8 9 18 9 32s11 24 26 24c7.4 0 13.8-2.9 18-8.2l-7.4-5.7c-2.4 3.2-6.1 5.1-10.4 5.1C25.3 47.2 18 40.6 18 32s7.3-15.2 17.2-15.2c4.3 0 8 1.9 10.4 5.1l7.4-5.7C48.8 10.9 42.4 8 35 8Z"
  />
</svg>
